<svg xmlns="http://www.w3.org/2000/svg" viewBox="0 0 64 64" width="64" height="64" role="img" aria-label="Chat Logo">
  <defs>
    <linearGradient id="g" x1="0" x2="1" y1="0" y2="1">
      <stop offset="0%" stop-color="#00b09b"/>
      <stop offset="100%" stop-color="#00a884"/>
    </linearGradient>
    <filter id="s" x="-50%" y="-50%" width="200%" height="200%">
      <feOffset dy="1" in="SourceAlpha"/>
      <feGaussianBlur stdDeviation="1"/>
      <feColorMatrix type="matrix" values="0 0 0 0 0   0 0 0 0 0   0 0 0 0 0   0 0 0 .2 0"/>
      <feBlend in2="SourceGraphic" mode="normal"/>
    </filter>
  </defs>
  <g filter="url(#s)">
    <path d="M8 30c0-12.15 9.85-22 22-22s22 9.85 22 22-9.85 22-22 22c-3.66 0-7.1-.9-10.11-2.5L8 56l6.67-12.23C11.87 39.97 8 35.35 8 30z" fill="url(#g)"/>
    <path d="M22.5 23.5a2.5 2.5 0 1 1 3.54 3.54l-1.12 1.12a2.5 2.5 0 1 1-3.54-3.54l1.12-1.12zm8.5-1a2.5 2.5 0 1 1 0 5h-1.5a2.5 2.5 0 1 1 0-5H31zm5.5 1.5a2.5 2.5 0 1 1 3.54 3.54l-7.5 7.5a2.5 2.5 0 0 1-3.54 0l-2.46-2.46a2.5 2.5 0 1 1 3.54-3.54l.69.69 6.23-6.23z" fill="#fff"/>
  </g>
</svg>
